<?xml version="1.0" encoding="utf-8"?><!-- Uploaded to: SVG Repo, www.svgrepo.com, Generator: SVG Repo Mixer Tools -->
<svg width="800px" height="800px" viewBox="0 0 24 24" fill="none" xmlns="http://www.w3.org/2000/svg">
<path fill-rule="evenodd" clip-rule="evenodd" d="M14.5509 9.53699H8.85108C7.15034 9.58387 5.8079 11.0346 5.85101 12.779V16.716C5.8079 18.4604 7.15034 19.9111 8.85108 19.958H14.5509C16.2517 19.9111 17.5941 18.4604 17.551 16.716V12.779C17.5941 11.0346 16.2517 9.58387 14.5509 9.53699V9.53699Z" stroke="#000000" stroke-width="1.5" stroke-linecap="round" stroke-linejoin="round"/>
<path d="M8.02601 9.537C8.02601 9.95121 8.36179 10.287 8.77601 10.287C9.19022 10.287 9.52601 9.95121 9.52601 9.537H8.02601ZM8.77601 4.861L9.52601 4.861L9.526 4.85823L8.77601 4.861ZM10.5759 3L10.5759 2.24999L10.5725 2.25001L10.5759 3ZM12.8262 3L12.8295 2.25H12.8262V3ZM14.626 4.861L13.876 4.85823V4.861H14.626ZM13.876 9.538C13.876 9.95221 14.2118 10.288 14.626 10.288C15.0402 10.288 15.376 9.95221 15.376 9.538H13.876ZM13.876 21C13.876 21.4142 14.2118 21.75 14.626 21.75C15.0402 21.75 15.376 21.4142 15.376 21H13.876ZM15.376 19.958C15.376 19.5438 15.0402 19.208 14.626 19.208C14.2118 19.208 13.876 19.5438 13.876 19.958H15.376ZM8.02601 21C8.02601 21.4142 8.36179 21.75 8.77601 21.75C9.19022 21.75 9.52601 21.4142 9.52601 21H8.02601ZM9.52601 19.958C9.52601 19.5438 9.19022 19.208 8.77601 19.208C8.36179 19.208 8.02601 19.5438 8.02601 19.958H9.52601ZM9.75101 12.434C9.33679 12.434 9.00101 12.7698 9.00101 13.184C9.00101 13.5982 9.33679 13.934 9.75101 13.934V12.434ZM13.651 13.934C14.0652 13.934 14.401 13.5982 14.401 13.184C14.401 12.7698 14.0652 12.434 13.651 12.434V13.934ZM9.75101 15.561C9.33679 15.561 9.00101 15.8968 9.00101 16.311C9.00101 16.7252 9.33679 17.061 9.75101 17.061V15.561ZM13.651 17.061C14.0652 17.061 14.401 16.7252 14.401 16.311C14.401 15.8968 14.0652 15.561 13.651 15.561V17.061ZM9.52601 9.537V4.861H8.02601V9.537H9.52601ZM9.526 4.85823C9.52369 4.23069 10.013 3.75249 10.5792 3.74999L10.5725 2.25001C9.14282 2.25632 8.02077 3.44421 8.02601 4.86377L9.526 4.85823ZM10.5759 3.75H12.8262V2.25H10.5759V3.75ZM12.8228 3.74999C13.389 3.75249 13.8783 4.23069 13.876 4.85823L15.376 4.86377C15.3812 3.44421 14.2592 2.25632 12.8295 2.25001L12.8228 3.74999ZM13.876 4.861V9.538H15.376V4.861H13.876ZM15.376 21V19.958H13.876V21H15.376ZM9.52601 21V19.958H8.02601V21H9.52601ZM9.75101 13.934H13.651V12.434H9.75101V13.934ZM9.75101 17.061H13.651V15.561H9.75101V17.061Z" fill="#000000"/>
</svg>